<svg height="512pt" viewBox="0 0 512 512" width="512pt" xmlns="http://www.w3.org/2000/svg" xmlns:xlink="http://www.w3.org/1999/xlink"><linearGradient id="a" gradientUnits="userSpaceOnUse" x1="0" x2="512" y1="256" y2="256"><stop offset="0" stop-color="#00f1ff"/><stop offset="1" stop-color="#00adff"/></linearGradient><path d="m512 256c0 141.386719-114.613281 256-256 256s-256-114.613281-256-256 114.613281-256 256-256 256 114.613281 256 256zm0 0" fill="url(#a)"/><g fill="#fff"><path d="m141.710938 287.476562c9.492187-16.476562 19.3125-33.511718 19.3125-59.875v-20.996093c0-43.59375 35.308593-79.539063 78.730468-80.171875h2.636719c43.570313.636718 78.996094 36.582031 78.996094 80.171875v20.996093c0 15.199219 3.179687 28.839844 10.003906 42.933594 2.589844 5.347656 7.941406 8.464844 13.511719 8.464844 2.191406 0 4.417968-.484375 6.527344-1.503906 7.453124-3.609375 10.570312-12.582032 6.960937-20.039063-4.910156-10.136719-7.003906-19.0625-7.003906-29.855469v-20.996093c0-55.609375-41.964844-102.15625-95.882813-109.242188v-19.53125c0-8.285156-6.714844-15-15-15-8.28125 0-15 6.714844-15 15v19.6875c-53.222656 7.59375-94.480468 53.875-94.480468 109.085938v20.996093c0 18.335938-6.753907 30.058594-15.308594 44.898438-8.558594 14.855469-18.261719 31.695312-23.140625 57.734375-2.367188 12.625.980469 25.53125 9.179687 35.410156 8.195313 9.871094 20.25 15.53125 33.074219 15.53125h63.40625c.535156 23.246094 19.597656 41.992188 42.96875 41.992188 23.707031 0 42.996094-19.285157 42.996094-42.992188 0-.070312-.011719-.136719-.011719-.203125 5.355469-2.289062 9.109375-7.605468 9.109375-13.796875 0-8.285156-6.714844-15-15-15h-143.464844c-5.304687 0-8.535156-2.941406-9.992187-4.691406-1.457032-1.757813-3.761719-5.488281-2.777344-10.722656 3.9375-21.019531 11.921875-34.878907 19.648438-48.285157zm99.492187 105.691407c-6.824219 0-12.425781-5.292969-12.941406-11.992188h25.886719c-.515626 6.699219-6.117188 11.992188-12.945313 11.992188zm0 0"/><path d="m437.167969 340.679688h-37.488281v-37.492188c0-8.28125-6.71875-15-15-15-8.285157 0-15 6.71875-15 15v37.492188h-37.492188c-8.285156 0-15 6.714843-15 15 0 8.285156 6.714844 15 15 15h37.492188v37.488281c0 8.285156 6.714843 15 15 15 8.28125 0 15-6.714844 15-15v-37.488281h37.488281c8.285156 0 15-6.714844 15-15 0-8.285157-6.714844-15-15-15zm0 0"/></g></svg>